<?xml version="1.0" encoding="UTF-8" standalone="no"?>
<svg xmlns="http://www.w3.org/2000/svg" xmlns:xlink="http://www.w3.org/1999/xlink" version="1.1" width="1000" height="1000" viewBox="0 0 1000 1000" xml:space="preserve">
    <desc>Created with Fabric.js 4.6.0</desc>
    <defs></defs>
    <g transform="matrix(1.32 0 0 1.32 500 500)" id="JTQ1dSGd3NriecBF5ZMZx">
        <path style="stroke: none; stroke-width: 1; stroke-dasharray: none; stroke-linecap: butt; stroke-dashoffset: 0; stroke-linejoin: miter; stroke-miterlimit: 4; fill: rgb(0,0,0); fill-rule: nonzero; opacity: 1;" vector-effect="non-scaling-stroke" transform=" translate(-337.05, -575.76)" d="M 391.052 912.761 L 391.052 912.761 Q 323.052 912.761 263.052 892.261 Q 203.052 871.761 158.552 830.261 Q 114.052 788.761 88.552 726.261 Q 63.052 663.761 63.052 580.761 L 63.052 580.761 Q 63.052 498.761 89.052 435.261 Q 115.052 371.761 159.552 328.261 Q 204.052 284.761 263.052 261.761 Q 322.052 238.761 387.052 238.761 L 387.052 238.761 Q 459.052 238.761 511.552 264.261 Q 564.052 289.761 599.052 324.761 L 599.052 324.761 L 509.052 434.761 Q 485.052 413.761 458.552 400.261 Q 432.052 386.761 393.052 386.761 L 393.052 386.761 Q 360.052 386.761 332.052 399.761 Q 304.052 412.761 283.052 436.761 Q 262.052 460.761 250.552 495.761 Q 239.052 530.761 239.052 574.761 L 239.052 574.761 Q 239.052 666.761 280.052 715.761 Q 321.052 764.761 409.052 764.761 L 409.052 764.761 Q 423.052 764.761 436.552 761.761 Q 450.052 758.761 459.052 752.761 L 459.052 752.761 L 459.052 662.761 L 363.052 662.761 L 363.052 522.761 L 611.052 522.761 L 611.052 832.761 Q 576.052 865.761 518.052 889.261 Q 460.052 912.761 391.052 912.761 Z" stroke-linecap="round" />
    </g>
</svg>